HIERARCHY
ROOT hip
{
	OFFSET 0.000000 0.000000 0.000000 
	CHANNELS 6 Xposition Yposition Zposition Xrotation Zrotation Yrotation
	JOINT abdomen
	{
		OFFSET 0.000000 3.402643 0.000000 
		CHANNELS 3 Xrotation Zrotation Yrotation
		JOINT chest
		{
			OFFSET 0.000000 8.438565 -0.680529 
			CHANNELS 3 Xrotation Zrotation Yrotation
			JOINT neck
			{
				OFFSET 0.000000 10.207942 -0.272212 
				CHANNELS 3 Xrotation Zrotation Yrotation
				JOINT head
				{
					OFFSET 0.000000 3.130431 0.000000 
					CHANNELS 3 Xrotation Zrotation Yrotation
					End Site
					{
						OFFSET 0.000000 3.130435 0.000000 
					}
				}
			}
			JOINT lCollar
			{
				OFFSET 3.470700 6.669187 -0.816635 
				CHANNELS 3 Yrotation Zrotation Xrotation
				JOINT lShldr
				{
					OFFSET 3.198488 0.000000 0.000000 
					CHANNELS 3 Zrotation Yrotation Xrotation
					JOINT lForeArm
					{
						OFFSET 10.139888 0.000000 0.000000 
						CHANNELS 3 Yrotation Zrotation Xrotation
						JOINT lHand
						{
							OFFSET 8.370511 0.000000 0.000000 
							CHANNELS 3 Zrotation Yrotation Xrotation
							End Site
							{
								OFFSET 4.083176 0.000000 0.000000 
							}
						}
					}
				}
			}
			JOINT rCollar
			{
				OFFSET -3.470700 6.669187 -0.816635 
				CHANNELS 3 Yrotation Zrotation Xrotation
				JOINT rShldr
				{
					OFFSET -3.198488 0.000000 0.000000 
					CHANNELS 3 Zrotation Yrotation Xrotation
					JOINT rForeArm
					{
						OFFSET -10.139888 0.000000 0.000000 
						CHANNELS 3 Yrotation Zrotation Xrotation
						JOINT rHand
						{
							OFFSET -8.370511 0.000000 0.000000 
							CHANNELS 3 Zrotation Yrotation Xrotation
							End Site
							{
								OFFSET -4.083176 0.000000 0.000000 
							}
						}
					}
				}
			}
		}
	}
	JOINT lThigh
	{
		OFFSET 5.308129 -1.633274 1.361059 
		CHANNELS 3 Xrotation Zrotation Yrotation
		JOINT lShin
		{
			OFFSET -2.041588 -20.007561 0.000000 
			CHANNELS 3 Xrotation Zrotation Yrotation
			JOINT lFoot
			{
				OFFSET 0.000000 -19.190928 -1.224953 
				CHANNELS 3 Xrotation Yrotation Zrotation
				End Site
				{
					OFFSET 0.000000 -2.449906 4.627600 
				}
			}
		}
	}
	JOINT rThigh
	{
		OFFSET -5.308129 -1.633274 1.361059 
		CHANNELS 3 Xrotation Zrotation Yrotation
		JOINT rShin
		{
			OFFSET 2.041588 -20.007561 0.000000 
			CHANNELS 3 Xrotation Zrotation Yrotation
			JOINT rFoot
			{
				OFFSET 0.000000 -19.190928 -1.224953 
				CHANNELS 3 Xrotation Yrotation Zrotation
				End Site
				{
					OFFSET 0.000000 -2.449906 4.627600 
				}
			}
		}
	}
}
MOTION
Frames: 13
Frame Time: 0.011111
4.237988 52.091061 -84.353737 -2.219816 3.720018 -2.362355 29.149086 -3.582998 -2.147250 -22.334442 4.368836 0.059288 -12.237211 -6.056776 -0.717863 27.896353 7.402906 -0.682915 9.553514 -10.448139 3.647584 -70.152657 -33.292850 26.243717 -46.722828 6.870817 6.862209 8.524705 12.647240 -62.054085 -5.779580 5.050342 2.610686 68.967094 30.439823 16.726189 53.974182 -8.508070 9.795656 -8.534408 -12.637552 35.911968 -3.932257 -1.990661 0.079146 27.286438 -5.487172 -4.531913 -16.567020 -0.369224 -3.046019 -17.614397 -10.125160 -4.966975 70.026176 1.533422 8.891358 -9.921215 -1.966485 2.789641 
4.240505 52.040424 -83.831345 -2.025226 3.909451 -1.916332 28.892885 -3.557455 -2.726571 -22.343903 4.624908 -0.109887 -11.838819 -6.121091 -0.619980 27.844364 7.316202 -0.453758 9.553514 -10.448139 3.647584 -70.129112 -33.394463 26.837637 -47.343967 7.039981 7.100823 8.524705 12.647240 -61.585335 -5.779580 5.050342 2.610686 68.865074 29.849077 17.035931 54.237621 -8.551747 9.903807 -8.534408 -12.637552 36.898296 -3.636837 -2.243213 -0.033003 27.548531 -5.468705 -4.560287 -17.100586 -0.451051 -3.044281 -19.045914 -10.357070 -5.177165 69.402962 1.611302 8.839691 -11.555650 -2.118263 2.678279 
4.266923 52.022812 -83.221825 -2.113677 3.875676 -1.432577 28.740009 -3.161124 -3.244627 -22.186945 4.743832 -0.287449 -11.426376 -6.303941 -0.561428 27.661522 7.264246 -0.330482 9.553514 -10.448139 3.647584 -70.161598 -33.578014 27.156530 -47.809578 7.157429 7.278713 8.524705 12.647240 -61.692760 -5.779580 5.050342 2.610686 68.759476 29.444641 17.169209 54.175095 -8.544503 9.881309 -8.534408 -12.637552 37.376808 -2.924379 -2.349665 -0.542025 27.959835 -5.448184 -4.612631 -17.984980 -0.458799 -2.984374 -19.850264 -10.417950 -5.582321 68.408981 1.739029 8.772523 -12.893746 -2.295243 2.551821 
4.304349 51.954563 -82.597214 -2.309183 3.916754 -1.760370 28.806938 -3.114370 -3.225859 -22.128151 4.744124 -0.282604 -11.396429 -6.443768 -0.469849 27.857073 7.303203 -0.130407 9.553514 -10.448139 3.647584 -70.112228 -34.057961 27.357094 -48.090122 7.232286 7.390936 8.524705 12.647240 -62.093155 -5.779580 5.050342 2.610686 68.696892 29.066792 17.133781 53.816666 -8.483201 9.730612 -8.534408 -12.637552 37.503761 -1.997663 -2.573330 -0.745314 28.329298 -5.439217 -4.652678 -19.025780 -0.170640 -2.832020 -20.823126 -10.406071 -5.287642 67.424889 1.855827 8.687426 -13.661726 -2.581471 2.414867 
4.320389 51.867130 -82.030792 -2.240631 4.051513 -2.112697 28.762609 -3.290106 -3.196669 -22.177080 4.803706 -0.259939 -11.531147 -6.443570 -0.396729 28.270811 7.211966 -0.009833 9.553514 -10.448139 3.647584 -70.039680 -34.521038 27.732653 -48.485485 7.336692 7.549933 8.524705 12.647240 -61.936901 -5.779580 5.050342 2.610686 68.649117 28.501938 17.188360 53.721684 -8.465718 9.689448 -8.534408 -12.637552 37.689312 -1.510253 -2.807299 -0.734315 28.680483 -5.419581 -4.689290 -19.868835 0.015248 -2.720587 -22.186407 -10.380335 -4.852006 66.293823 1.992403 8.601459 -14.174389 -3.005711 2.270148 
4.324478 51.815556 -81.498962 -2.045337 4.232274 -2.163686 28.672297 -3.500011 -3.327909 -22.157425 4.842394 -0.269758 -11.540261 -6.344078 -0.445074 28.226683 7.178216 -0.103466 9.553514 -10.448139 3.647584 -69.738373 -34.982510 28.648972 -49.026112 7.468417 7.762141 8.524705 12.647240 -61.175182 -5.779580 5.050342 2.610686 68.623856 27.837715 17.723473 54.017574 -8.520322 9.815943 -8.534408 -12.637552 38.392437 -1.257428 -3.053232 -0.624537 28.981247 -5.395072 -4.759099 -20.493086 -0.052443 -2.688961 -23.559114 -10.437008 -4.539699 64.966652 2.157491 8.515055 -15.036099 -3.202321 2.169199 
4.312527 51.775299 -80.990707 -1.850009 4.313921 -1.966003 28.685593 -3.560901 -3.501554 -22.147579 4.870011 -0.309228 -11.728331 -6.235154 -0.515683 28.240419 7.193477 -0.262936 9.553514 -10.448139 3.647584 -69.442421 -35.699898 29.468342 -49.359932 7.551865 7.896295 8.524705 12.647240 -61.214245 -5.779580 5.050342 2.610686 68.652939 27.336439 17.953171 54.080105 -8.527766 9.838355 -8.534408 -12.637552 38.743999 -0.964027 -3.146479 -0.550800 29.121956 -5.389492 -4.751429 -20.850494 -0.325727 -2.768271 -24.778952 -10.436666 -4.404678 63.433743 2.343929 8.411730 -15.952290 -3.185112 2.047694 
4.279189 51.719940 -80.504486 -1.654896 4.468223 -1.574523 28.897667 -3.672576 -3.960663 -22.255146 5.079619 -0.425606 -12.162213 -6.225927 -0.494423 28.546856 7.265351 -0.251497 9.553514 -10.448139 3.647584 -69.218842 -36.408409 30.187807 -49.723930 7.633842 8.043965 8.524705 12.647240 -61.028698 -5.779580 5.050342 2.610686 68.709473 27.166296 17.576839 53.637466 -8.451505 9.656476 -8.534408 -12.637552 38.314312 -0.497381 -3.311031 -0.675299 29.033918 -5.381090 -4.741575 -21.102669 -0.672393 -2.858810 -25.925997 -10.565863 -4.387141 61.685856 2.539151 8.262666 -16.543915 -3.487168 1.921448 
4.269754 51.687862 -79.951576 -1.567411 4.763226 -1.585399 28.988253 -3.973817 -4.241615 -22.343243 5.253174 -0.470860 -12.433159 -6.116662 -0.452608 28.759098 7.109478 -0.213589 9.553514 -10.448139 3.647584 -69.016258 -36.778549 31.009644 -50.361389 7.782786 8.300421 8.524705 12.647240 -59.876354 -5.779580 5.050342 2.610686 68.731590 26.822144 17.453421 53.405319 -8.408570 9.560943 -8.534408 -12.637552 38.353371 0.292756 -3.636362 -0.628630 28.780970 -5.409593 -4.715932 -21.467995 -0.767098 -2.889375 -26.868095 -10.768466 -4.065833 59.682117 2.773670 8.099503 -16.972258 -3.996034 1.736340 
4.265979 51.664902 -79.369423 -1.548636 5.141858 -1.691615 28.927664 -4.374518 -4.516722 -22.176432 5.360979 -0.479877 -12.293086 -6.062921 -0.458004 28.443403 7.066855 -0.225789 9.553514 -10.448139 3.647584 -68.742447 -37.325085 31.754646 -50.842335 7.888371 8.490355 8.524705 12.647240 -59.095104 -5.779580 5.050342 2.610686 68.697441 26.403334 17.826509 53.374046 -8.404422 9.549931 -8.534408 -12.637552 38.753769 1.307095 -4.056945 -0.529792 28.320799 -5.429032 -4.659986 -21.783592 -0.873681 -2.915769 -27.632124 -11.004046 -3.586233 57.491581 3.017840 7.889642 -17.131105 -4.341129 1.603226 
4.255915 51.650120 -78.818413 -1.441413 5.309782 -1.344192 28.812157 -4.386157 -4.968378 -22.097780 5.512745 -0.596292 -11.779779 -6.340310 -0.484651 27.943472 7.355047 -0.215489 9.553514 -10.448139 3.647584 -68.555824 -37.831436 32.330612 -51.281380 7.980419 8.672988 8.524705 12.647240 -58.948624 -5.779580 5.050342 2.610686 68.547348 26.041040 18.148893 53.237064 -8.378230 9.487314 -8.534408 -12.637552 39.095562 2.252044 -4.240525 -0.675851 27.698353 -5.468197 -4.564438 -21.940683 -1.106487 -2.995120 -28.225664 -11.159209 -3.462559 55.082512 3.281226 7.672461 -17.157755 -4.680314 1.511571 
4.249310 51.646038 -78.269272 -1.294782 5.448908 -0.942948 28.908455 -4.349221 -5.376104 -22.117216 5.683549 -0.713015 -12.066278 -6.382260 -0.447668 27.884542 7.323449 -0.192520 9.553514 -10.448139 3.647584 -68.452957 -38.387012 32.957058 -51.806019 8.091675 8.885391 8.524705 12.647240 -58.665417 -5.779580 5.050342 2.610686 68.463966 25.880013 18.234217 53.068832 -8.347289 9.413976 -8.534408 -12.637552 39.124859 3.189407 -4.379484 -0.839688 27.014196 -5.507321 -4.492422 -22.046888 -1.232611 -3.041781 -28.724522 -11.325861 -3.289960 52.484718 3.552608 7.414246 -17.329605 -5.064096 1.398632 
4.227925 51.629368 -77.707260 -1.236257 5.606084 -0.940723 29.190218 -4.515935 -5.531931 -22.087673 5.819680 -0.735409 -13.016099 -6.253090 -0.345709 28.342306 7.160649 -0.126139 9.553514 -10.448139 3.647584 -68.275581 -39.040413 33.707500 -52.341625 8.201033 9.111531 8.524705 12.647240 -58.167366 -5.779580 5.050342 2.610686 68.503838 25.750137 18.242420 52.984627 -8.331901 9.381581 -8.534408 -12.637552 39.066265 4.282353 -4.545846 -0.859505 26.341503 -5.541058 -4.371253 -22.324423 -1.322689 -3.048048 -29.059278 -11.356204 -2.740336 49.716908 3.808485 7.134389 -17.543859 -5.229651 1.328671 
